{
	"asset":{
		"generator":"Khronos glTF Blender I/O v4.1.62",
		"version":"2.0"
	},
	"extensionsUsed":[
		"KHR_materials_specular",
		"KHR_materials_ior"
	],
	"scene":0,
	"scenes":[
		{
			"name":"Scene",
			"nodes":[
				0
			]
		}
	],
	"nodes":[
		{
			"mesh":0,
			"name":"3DModel_LowPoly",
			"rotation":[
				0,
				-0.16833187639713287,
				0,
				0.9857304096221924
			]
		}
	],
	"materials":[
		{
			"extensions":{
				"KHR_materials_specular":{
					"specularColorFactor":[
						0.0,
						0.0,
						0.0
					]
				},
				"KHR_materials_ior":{
					"ior":1000
				}
			},
			"name":"3DModel_LowPoly",
			"pbrMetallicRoughness":{
				"baseColorTexture":{
					"index":0
				},
				"metallicFactor":0
			}
		}
	],
	"meshes":[
		{
			"name":"3DModel_LowPoly",
			"primitives":[
				{
					"attributes":{
						"POSITION":0,
						"NORMAL":1,
						"TEXCOORD_0":2
					},
					"indices":3,
					"material":0
				}
			]
		}
	],
	"textures":[
		{
			"sampler":0,
			"source":0
		}
	],
	"images":[
		{
			"mimeType":"image/jpeg",
			"name":"Image_0",
			"uri":"Image_0.jpg"
		}
	],
	"accessors":[
		{
			"bufferView":0,
			"componentType":5126,
			"count":2800,
			"max":[
				1.630581021308899,
				1.1137720346450806,
				0.8158190250396729
			],
			"min":[
				-1.0791280269622803,
				-1.0082950592041016,
				-0.9306610226631165
			],
			"type":"VEC3"
		},
		{
			"bufferView":1,
			"componentType":5126,
			"count":2800,
			"type":"VEC3"
		},
		{
			"bufferView":2,
			"componentType":5126,
			"count":2800,
			"type":"VEC2"
		},
		{
			"bufferView":3,
			"componentType":5123,
			"count":13758,
			"type":"SCALAR"
		}
	],
	"bufferViews":[
		{
			"buffer":0,
			"byteLength":33600,
			"byteOffset":0,
			"target":34962
		},
		{
			"buffer":0,
			"byteLength":33600,
			"byteOffset":33600,
			"target":34962
		},
		{
			"buffer":0,
			"byteLength":22400,
			"byteOffset":67200,
			"target":34962
		},
		{
			"buffer":0,
			"byteLength":27516,
			"byteOffset":89600,
			"target":34963
		}
	],
	"samplers":[
		{
			"magFilter":9729,
			"minFilter":9987
		}
	],
	"buffers":[
		{
			"byteLength":117116,
			"uri":"clay.bin"
		}
	]
}
